# xmcd CD database file
#
# Track frame offsets:
#	150
#	20987
#	32800
#	48395
#	63096
#	75129
#	90193
#	101582
#	114830
#	127811
#	134679
#	146905
#	161185
#	172513
#	188461
#	201617
#	221746
#	236175
#	250337
#	265003
#	277886
#	299935
#	315372
#
# Disc length: 4398 seconds
#
# Revision: 0
# Processed by: cddbd v1.5.1PL0 Copyright (c) Steve Scherf et al.
# Submitted via: Feurio! 1.67 - http://www.feurio.com
#
DISCID=49112c17
DTITLE=FRANK SINATRA - My way - The best of
DYEAR=1900
DGENRE=
TTITLE0=My way
TTITLE1=Strangers in the night
TTITLE2=New York New York
TTITLE3=I get a kick out of you
TTITLE4=FRANK SINATRA with NANCY SINATRA - Somethin' stupid
TTITLE5=Moon river
TTITLE6=What now my love
TTITLE7=Summer wind
TTITLE8=For once in my life
TTITLE9=Love and marriage
TTITLE10=They can't take that away from me
TTITLE11=My kind of town
TTITLE12=Fly me to the moon
TTITLE13=I've got you under my skin
TTITLE14=The best is yet to come
TTITLE15=It was a very good year
TTITLE16=Come fly with me
TTITLE17=That's life
TTITLE18=The girl from Ipanema
TTITLE19=Bad bad Leroy Brown
TTITLE20=Mack the Knife
TTITLE21=Love's been good to me
TTITLE22=L A is my lady
EXTD=
EXTT0=
EXTT1=
EXTT2=
EXTT3=
EXTT4=
EXTT5=
EXTT6=
EXTT7=
EXTT8=
EXTT9=
EXTT10=
EXTT11=
EXTT12=
EXTT13=
EXTT14=
EXTT15=
EXTT16=
EXTT17=
EXTT18=
EXTT19=
EXTT20=
EXTT21=
EXTT22=
PLAYORDER=
